# xmcd
#
# Track frame offsets:
#   150
#   21850
#   40125
#   57050
#   71350
#   93137
#   107812
#   122025
#   134787
#   151312
#   166625
#
# Disc length: 2395 seconds
#
# Revision: 0
# Processed by: cddbd v1.5.1PL2 Copyright (c) Steve Scherf et al.
# Submitted via: GXTranscoder 2.0.1939
#
DISCID=8709590b
DTITLE=Nick Gravenites - Bluestar
DYEAR=1988
DGENRE=Blues
TTITLE0=Junkjard in Malibu
TTITLE1=Bye Bye
TTITLE2=I'm A Bluesman
TTITLE3=Dekalb Blues
TTITLE4=Blues Back Off
TTITLE5=Who's Out There
TTITLE6=Down In The Bottom
TTITLE7=I'm A Dancing Fool
TTITLE8=The Sister Song
TTITLE9=My Party
TTITLE10=Southside
EXTD=
EXTT0=
EXTT1=
EXTT2=
EXTT3=
EXTT4=
EXTT5=
EXTT6=
EXTT7=
EXTT8=
EXTT9=
EXTT10=
PLAYORDER=
